<svg width="18.000000" height="18.000000" viewBox="0 0 18 18" fill="none" xmlns="http://www.w3.org/2000/svg" xmlns:xlink="http://www.w3.org/1999/xlink">
	<desc>
			Created with Pixso.
	</desc>
	<defs/>
	<g style="mix-blend-mode:normal">
		<g style="mix-blend-mode:normal"/>
		<g style="mix-blend-mode:normal">
			<path id="形状" d="M1.95081 6.9375C2.55432 7.98193 3.6676 8.625 4.87463 8.625C6.73792 8.625 8.24963 7.11401 8.24963 5.25C8.24963 3.38599 6.73792 1.875 4.87463 1.875C3.6676 1.875 2.55432 2.51807 1.95081 3.5625C1.35022 4.60693 1.35022 5.89307 1.95081 6.9375ZM12.7496 8.625C11.5426 8.625 10.4293 7.98193 9.82581 6.9375C9.22522 5.89307 9.22522 4.60693 9.82581 3.5625C10.4293 2.51807 11.5426 1.875 12.7496 1.875C14.6129 1.875 16.1246 3.38599 16.1246 5.25C16.1246 7.11401 14.6129 8.625 12.7496 8.625ZM4.87463 7.125C5.90881 7.125 6.74963 6.28564 6.74963 5.25C6.74963 4.21436 5.90881 3.375 4.87463 3.375C3.84045 3.375 2.99963 4.21436 2.99963 5.25C2.99963 6.28564 3.84045 7.125 4.87463 7.125ZM12.7496 7.125C13.7838 7.125 14.6246 6.28564 14.6246 5.25C14.6246 4.21436 13.7838 3.375 12.7496 3.375C11.7155 3.375 10.8746 4.21436 10.8746 5.25C10.8746 6.28564 11.7155 7.125 12.7496 7.125ZM1.87463 12.75C1.87463 14.614 3.38635 16.125 5.24963 16.125C7.11292 16.125 8.62463 14.614 8.62463 12.75C8.62463 10.886 7.11292 9.375 5.24963 9.375C3.38635 9.375 1.87463 10.886 1.87463 12.75ZM9.37463 12.75C9.37463 14.614 10.8864 16.125 12.7496 16.125C14.6129 16.125 16.1246 14.614 16.1246 12.75C16.1246 10.886 14.6129 9.375 12.7496 9.375C10.8864 9.375 9.37463 10.886 9.37463 12.75ZM7.12463 12.75C7.12463 13.7856 6.28381 14.625 5.24963 14.625C4.21545 14.625 3.37463 13.7856 3.37463 12.75C3.37463 11.7144 4.21545 10.875 5.24963 10.875C6.28381 10.875 7.12463 11.7144 7.12463 12.75ZM14.6246 12.75C14.6246 13.7856 13.7838 14.625 12.7496 14.625C11.7155 14.625 10.8746 13.7856 10.8746 12.75C10.8746 11.7144 11.7155 10.875 12.7496 10.875C13.7838 10.875 14.6246 11.7144 14.6246 12.75Z" clip-rule="evenodd" fill="#6FA1FF" fill-opacity="1.000000" fill-rule="evenodd"/>
		</g>
	</g>
</svg>
