<svg width="24.000000" height="24.000000" viewBox="0 0 24 24" fill="none" xmlns="http://www.w3.org/2000/svg" xmlns:xlink="http://www.w3.org/1999/xlink">
	<desc>
			Created with Pixso.
	</desc>
	<defs/>
	<g style="mix-blend-mode:normal">
		<g style="mix-blend-mode:normal"/>
		<g style="mix-blend-mode:normal">
			<path id="形状" d="M12.5141 1.30853L21.2851 6.57053C21.4359 6.66083 21.5282 6.8237 21.5282 6.99951C21.5282 7.17532 21.4359 7.33823 21.2851 7.42853L12.0001 12.9995L2.71507 7.42853C2.56422 7.33823 2.47189 7.17532 2.47189 6.99951C2.47189 6.8237 2.56422 6.66083 2.71507 6.57053L11.4851 1.30853C11.802 1.1181 12.1981 1.1181 12.5151 1.30853L12.5141 1.30853ZM5.88699 7.00006L12 3.33206L18.113 7.00006L12 10.6681L5.88699 7.00006ZM21.2851 11.2208L20.0831 10.4998L12.0001 15.3498L3.91707 10.4998L2.71507 11.2208C2.56422 11.3111 2.47189 11.474 2.47189 11.6498C2.47189 11.8256 2.56422 11.9885 2.71507 12.0788L12.0001 17.6498L21.2851 12.0788C21.4359 11.9885 21.5282 11.8256 21.5282 11.6498C21.5282 11.474 21.4359 11.3111 21.2851 11.2208ZM20.0831 15.2002L21.2851 15.9212C21.4359 16.0115 21.5282 16.1744 21.5282 16.3502C21.5282 16.526 21.4359 16.6889 21.2851 16.7792L12.5151 22.0412C12.1981 22.2316 11.802 22.2316 11.4851 22.0412L2.71507 16.7792C2.56422 16.6889 2.47189 16.526 2.47189 16.3502C2.47189 16.1744 2.56422 16.0115 2.71507 15.9212L3.91707 15.2002L12.0001 20.0502L20.0831 15.2002Z" clip-rule="evenodd" fill="#6FA1FF" fill-opacity="1.000000" fill-rule="evenodd"/>
		</g>
	</g>
</svg>
