<svg width="20.000000" height="20.000000" viewBox="0 0 20 20" fill="none" xmlns="http://www.w3.org/2000/svg" xmlns:xlink="http://www.w3.org/1999/xlink">
	<desc>
			Created with Pixso.
	</desc>
	<defs/>
	<g style="mix-blend-mode:normal">
		<g style="mix-blend-mode:normal"/>
		<g style="mix-blend-mode:normal">
			<path id="形状" d="M14.1666 2.49994L17.4999 2.49994C17.9602 2.49994 18.3333 2.87299 18.3333 3.33325L18.3333 16.6666C18.3333 17.1268 17.9602 17.4999 17.4999 17.4999L2.49994 17.4999C2.03973 17.4999 1.66663 17.1268 1.66663 16.6666L1.66663 3.33325C1.66663 2.87299 2.03973 2.49994 2.49994 2.49994L5.83331 2.49994L5.83331 0.833252L7.49994 0.833252L7.49994 2.49994L12.4999 2.49994L12.4999 0.833252L14.1666 0.833252L14.1666 2.49994ZM12.4999 4.16663L7.49988 4.16663L7.49988 5.83325L5.83325 5.83325L5.83325 4.16663L3.33325 4.16663L3.33325 7.49994L16.6666 7.49994L16.6666 4.16663L14.1666 4.16663L14.1666 5.83325L12.4999 5.83325L12.4999 4.16663ZM3.33325 9.16656L16.6666 9.16656L16.6666 15.8333L3.33325 15.8333L3.33325 9.16656ZM6.6665 10.8333L4.99988 10.8333L4.99988 12.4999L6.6665 12.4999L6.6665 10.8333ZM9.1665 10.8333L10.8332 10.8333L10.8332 12.4999L9.1665 12.4999L9.1665 10.8333ZM14.9999 10.8333L13.3333 10.8333L13.3333 12.4999L14.9999 12.4999L14.9999 10.8333Z" clip-rule="evenodd" fill="#8C8C8C" fill-opacity="1.000000" fill-rule="evenodd"/>
		</g>
	</g>
</svg>
