<svg width="14.000000" height="14.000000" viewBox="0 0 14 14" fill="none" xmlns="http://www.w3.org/2000/svg" xmlns:xlink="http://www.w3.org/1999/xlink">
	<desc>
			Created with Pixso.
	</desc>
	<defs/>
	<g style="mix-blend-mode:normal">
		<g opacity="0.000000" style="mix-blend-mode:normal">
			<rect id="矩形" width="14.000000" height="14.000000" fill="#DDDDDD" fill-opacity="1.000000"/>
			<rect id="矩形" x="0.500000" y="0.500000" width="13.000000" height="13.000000" stroke="#DDDDDD" stroke-opacity="1.000000" stroke-width="1.000000"/>
		</g>
		<g style="mix-blend-mode:normal">
			<path id="Fill 1 Copy 5" d="M6.18 12L6.18 12C5.87 12 5.57 11.76 5.57 11.24L5.57 6.81L2.23 3.12C2.14 3.02 2.07 2.9 2.03 2.79C1.98 2.64 1.98 2.49 2.04 2.36C2.1 2.23 2.21 2.13 2.35 2.07C2.46 2.02 2.59 2 2.73 2L11.26 2C11.4 2 11.53 2.02 11.64 2.07C11.78 2.13 11.89 2.23 11.95 2.36C12.01 2.49 12.01 2.64 11.96 2.79C11.92 2.9 11.85 3.02 11.76 3.12L8.42 6.81L8.42 9.48C8.42 9.98 8.13 10.6 7.74 10.92L6.7 11.78C6.53 11.92 6.35 12 6.18 12L6.18 12Z" fill="#CCCCCC" fill-opacity="1.000000" fill-rule="evenodd"/>
		</g>
	</g>
</svg>
