<svg width="17.521973" height="15.852310" viewBox="0 0 17.522 15.8523" fill="none" xmlns="http://www.w3.org/2000/svg" xmlns:xlink="http://www.w3.org/1999/xlink">
	<desc>
			Created with Pixso.
	</desc>
	<defs/>
	<g style="mix-blend-mode:normal">
		<g style="mix-blend-mode:normal">
			<path id="ico" d="M8.76099 15.8523C3.92224 15.8523 0 12.3038 0 7.92615C0 3.54854 3.92224 0 8.76099 0C13.5997 0 17.522 3.54854 17.522 7.92615C17.522 12.3038 13.5997 15.8523 8.76099 15.8523ZM10.4865 7.13394C10.3601 5.25591 9.77063 3.42729 8.76147 1.7822C7.75183 3.42723 7.16211 5.25584 7.03552 7.13394L10.4865 7.13394ZM5.27917 7.13394L1.80542 7.13394C2.15381 4.64183 4.09375 2.57001 6.75366 1.84956C5.88928 3.50827 5.38855 5.30283 5.27917 7.13394ZM12.2428 7.13394C12.1334 5.30283 11.6327 3.50827 10.7683 1.84956C13.4282 2.57001 15.3682 4.64183 15.7166 7.13394L12.2428 7.13394ZM8.76123 14.0713C7.77832 12.4686 7.1676 10.6527 7.0354 8.71951L10.4872 8.71951C10.3605 10.5976 9.77075 12.4262 8.76123 14.0713ZM6.75366 14.0039C5.88928 12.3452 5.38855 10.5507 5.27917 8.71956L1.80542 8.71956C2.15381 11.2117 4.09375 13.2835 6.75366 14.0039ZM15.7166 8.71956L12.2428 8.71956C12.1334 10.5507 11.6327 12.3452 10.7683 14.0039C13.4282 13.2835 15.3682 11.2117 15.7166 8.71956Z" clip-rule="evenodd" fill="#5E5E5E" fill-opacity="1.000000" fill-rule="evenodd"/>
		</g>
	</g>
</svg>
