<svg width="18.000000" height="18.000000" viewBox="0 0 18 18" fill="none" xmlns="http://www.w3.org/2000/svg" xmlns:xlink="http://www.w3.org/1999/xlink">
	<desc>
			Created with Pixso.
	</desc>
	<defs/>
	<g style="mix-blend-mode:normal">
		<g style="mix-blend-mode:normal"/>
		<g style="mix-blend-mode:normal">
			<path id="形状" d="M9 16.5C4.85775 16.5 1.5 13.1423 1.5 9C1.5 4.85775 4.85775 1.5 9 1.5C13.1423 1.5 16.5 4.85775 16.5 9C16.5 13.1423 13.1423 16.5 9 16.5ZM11.5925 7.12235C11.7803 8.40984 10.9972 9.64078 9.75143 10.0163L9.75143 10.5L8.25143 10.5L8.25143 9.375C8.25143 8.96078 8.58721 8.625 9.00143 8.625C9.59404 8.62496 10.085 8.16521 10.1239 7.57388C10.1628 6.98254 9.73636 6.46242 9.14886 6.38471C8.56136 6.30701 8.01433 6.69838 7.89817 7.2795L6.42667 6.98475C6.67258 5.75783 7.75011 4.87491 9.00143 4.875C10.3025 4.87894 11.4047 5.83486 11.5925 7.12235ZM8.25 11.25L8.25 12.75L9.75 12.75L9.75 11.25L8.25 11.25Z" clip-rule="evenodd" fill="#D8D9D8" fill-opacity="1.000000" fill-rule="evenodd"/>
		</g>
		<g style="mix-blend-mode:normal">
			<g style="mix-blend-mode:normal"/>
			<g style="mix-blend-mode:normal">
				<path id="形状" d="M1.5 9C1.5 13.1423 4.85775 16.5 9 16.5C13.1423 16.5 16.5 13.1423 16.5 9C16.5 4.85775 13.1423 1.5 9 1.5C4.85775 1.5 1.5 4.85775 1.5 9ZM15 9C15 12.3137 12.3137 15 9 15C5.68629 15 3 12.3137 3 9C3 5.68629 5.68629 3 9 3C12.3137 3 15 5.68629 15 9ZM9.75177 10.4995L9.75177 10.0157C10.9845 9.64828 11.7695 8.44193 11.6062 7.16602C11.4429 5.89011 10.3794 4.92035 9.09386 4.87522C7.80833 4.8301 6.67938 5.72289 6.42702 6.98421L7.89852 7.27896C8.01467 6.69784 8.56171 6.30647 9.14921 6.38417C9.73671 6.46188 10.1632 6.982 10.1243 7.57333C10.0854 8.16467 9.59438 8.62442 9.00177 8.62446C8.58755 8.62446 8.25177 8.96024 8.25177 9.37446L8.25177 10.4995L9.75177 10.4995ZM9.75 11.25L9.75 12.75L8.25 12.75L8.25 11.25L9.75 11.25Z" clip-rule="evenodd" fill="#383838" fill-opacity="1.000000" fill-rule="evenodd"/>
			</g>
		</g>
	</g>
</svg>
