<svg width="19.199951" height="19.000000" viewBox="0 0 19.2 19" fill="none" xmlns="http://www.w3.org/2000/svg" xmlns:xlink="http://www.w3.org/1999/xlink">
	<desc>
			Created with Pixso.
	</desc>
	<defs/>
	<g style="mix-blend-mode:normal">
		<g style="mix-blend-mode:normal"/>
		<g style="mix-blend-mode:normal">
			<path id="形状" d="M8.802 4.00034L2.40198 4.00034L2.40198 9.33366L8.802 9.33366L8.802 4.00034ZM10.4036 4.00034L16.8036 4.00034L16.8036 9.33366L10.4036 9.33366L10.4036 4.00034ZM8.802 10.6673L2.40198 10.6673L2.40198 16.0006L8.802 16.0006L8.802 10.6673ZM16.8036 10.6673L10.4036 10.6673L10.4036 16.0006L16.8036 16.0006L16.8036 10.6673Z" clip-rule="evenodd" fill="#D8D9D8" fill-opacity="1.000000" fill-rule="evenodd"/>
		</g>
		<g style="mix-blend-mode:normal">
			<g style="mix-blend-mode:normal"/>
			<g style="mix-blend-mode:normal">
				<path id="形状" d="M2.40198 2.37537L8.802 2.37537L8.802 8.70869L2.40198 8.70869L2.40198 2.37537ZM2.40198 10.2924L8.802 10.2924L8.802 16.6257L2.40198 16.6257L2.40198 10.2924ZM10.4036 2.37537L16.8036 2.37537L16.8036 8.70869L10.4036 8.70869L10.4036 2.37537ZM10.4036 10.2924L16.8036 10.2924L16.8036 16.6257L10.4036 16.6257L10.4036 10.2924ZM11.9985 3.95749L15.1985 3.95749L15.1985 7.12415L11.9985 7.12415L11.9985 3.95749ZM11.9985 11.8746L15.1985 11.8746L15.1985 15.0412L11.9985 15.0412L11.9985 11.8746ZM3.99695 3.95749L7.1969 3.95749L7.1969 7.12415L3.99695 7.12415L3.99695 3.95749ZM3.99695 11.8746L7.1969 11.8746L7.1969 15.0412L3.99695 15.0412L3.99695 11.8746Z" clip-rule="evenodd" fill="#5E5E5E" fill-opacity="1.000000" fill-rule="evenodd"/>
			</g>
		</g>
	</g>
</svg>
