<svg width="24.000000" height="24.000000" viewBox="0 0 24 24" fill="none" xmlns="http://www.w3.org/2000/svg" xmlns:xlink="http://www.w3.org/1999/xlink">
	<desc>
			Created with Pixso.
	</desc>
	<defs/>
	<g style="mix-blend-mode:normal">
		<g style="mix-blend-mode:normal"/>
		<g style="mix-blend-mode:normal">
			<path id="形状" d="M21 4L21 20C21 20.5527 20.5508 21 20 21L4 21C3.44922 21 3 20.5527 3 20L3 4C3 3.44727 3.44922 3 4 3L20 3C20.5508 3 21 3.44727 21 4ZM5 11L19 11L19 5L5 5L5 11ZM10 7L7 7L7 9L10 9L10 7ZM5 13L19 13L19 19L5 19L5 13ZM7 15L10 15L10 17L7 17L7 15Z" clip-rule="evenodd" fill="#6FA1FF" fill-opacity="1.000000" fill-rule="evenodd"/>
		</g>
	</g>
</svg>
